<svg width="30" height="30" viewBox="0 0 30 30" fill="none" xmlns="http://www.w3.org/2000/svg">
<circle cx="15" cy="15" r="15" fill="#2563EB"/>
<path d="M24.42 13.922C24.599 13.843 24.7509 13.7133 24.8569 13.5488C24.9629 13.3843 25.0183 13.1924 25.0163 12.9967C25.0143 12.8011 24.9549 12.6103 24.8455 12.4481C24.7362 12.2859 24.5816 12.1593 24.401 12.084L15.83 8.18001C15.5694 8.06115 15.2864 7.99965 15 7.99965C14.7136 7.99965 14.4306 8.06115 14.17 8.18001L5.6 12.08C5.42196 12.158 5.27051 12.2861 5.16416 12.4488C5.05781 12.6115 5.00117 12.8016 5.00117 12.996C5.00117 13.1904 5.05781 13.3805 5.16416 13.5432C5.27051 13.7059 5.42196 13.834 5.6 13.912L14.17 17.82C14.4306 17.9389 14.7136 18.0004 15 18.0004C15.2864 18.0004 15.5694 17.9389 15.83 17.82L24.42 13.922Z" stroke="white" stroke-width="2" stroke-linecap="round" stroke-linejoin="round"/>
<path d="M25 13V19" stroke="white" stroke-width="2" stroke-linecap="round" stroke-linejoin="round"/>
<path d="M9 15.5V19C9 19.7956 9.63214 20.5587 10.7574 21.1213C11.8826 21.6839 13.4087 22 15 22C16.5913 22 18.1174 21.6839 19.2426 21.1213C20.3679 20.5587 21 19.7956 21 19V15.5" stroke="white" stroke-width="2" stroke-linecap="round" stroke-linejoin="round"/>
</svg>
